<mxfile host="app.diagrams.net" agent="Mozilla/5.0 (Windows NT 10.0; Win64; x64) AppleWebKit/537.36 (KHTML, like Gecko) Chrome/129.0.0.0 Safari/537.36 Edg/129.0.0.0" version="24.8.6">
  <diagram name="Seite-1" id="wvzAcberYqHIWmo-G3lQ">
    <mxGraphModel dx="1091" dy="581" grid="1" gridSize="10" guides="1" tooltips="1" connect="1" arrows="1" fold="1" page="1" pageScale="1" pageWidth="827" pageHeight="1169" math="0" shadow="0">
      <root>
        <mxCell id="0" />
        <mxCell id="1" parent="0" />
        <mxCell id="tI99YpG015qUpdIWpq0e-46" style="edgeStyle=orthogonalEdgeStyle;rounded=0;orthogonalLoop=1;jettySize=auto;html=1;entryX=0.5;entryY=0;entryDx=0;entryDy=0;entryPerimeter=0;" parent="1" edge="1">
          <mxGeometry relative="1" as="geometry">
            <mxPoint x="130" y="230" as="sourcePoint" />
            <mxPoint x="130" y="230" as="targetPoint" />
          </mxGeometry>
        </mxCell>
        <mxCell id="nvmey5WYhwGQmrVhtM5V-1" value="System" style="swimlane;whiteSpace=wrap;html=1;startSize=23;" vertex="1" parent="1">
          <mxGeometry x="190" y="140" width="410" height="530" as="geometry">
            <mxRectangle x="190" y="140" width="80" height="30" as="alternateBounds" />
          </mxGeometry>
        </mxCell>
        <mxCell id="nvmey5WYhwGQmrVhtM5V-8" style="rounded=0;orthogonalLoop=1;jettySize=auto;html=1;dashed=1;entryX=0;entryY=0.5;entryDx=0;entryDy=0;" edge="1" parent="nvmey5WYhwGQmrVhtM5V-1" source="nvmey5WYhwGQmrVhtM5V-4" target="nvmey5WYhwGQmrVhtM5V-10">
          <mxGeometry relative="1" as="geometry">
            <mxPoint x="140" y="88" as="targetPoint" />
          </mxGeometry>
        </mxCell>
        <mxCell id="nvmey5WYhwGQmrVhtM5V-9" value="&lt;p style=&quot;line-height: 100%; font-size: 9px;&quot;&gt;&amp;lt;&amp;lt;includes&amp;gt;&amp;gt;&lt;/p&gt;" style="edgeLabel;html=1;align=center;verticalAlign=top;resizable=0;points=[];fontSize=9;labelBackgroundColor=none;spacing=-20;" vertex="1" connectable="0" parent="nvmey5WYhwGQmrVhtM5V-8">
          <mxGeometry x="-0.19" y="-3" relative="1" as="geometry">
            <mxPoint y="-10" as="offset" />
          </mxGeometry>
        </mxCell>
        <mxCell id="nvmey5WYhwGQmrVhtM5V-4" value="Display reservation data" style="ellipse;whiteSpace=wrap;html=1;" vertex="1" parent="nvmey5WYhwGQmrVhtM5V-1">
          <mxGeometry x="64" y="57.5" width="100" height="65" as="geometry" />
        </mxCell>
        <mxCell id="nvmey5WYhwGQmrVhtM5V-10" value="Driver Identity Check" style="ellipse;whiteSpace=wrap;html=1;" vertex="1" parent="nvmey5WYhwGQmrVhtM5V-1">
          <mxGeometry x="270" y="57.5" width="100" height="65" as="geometry" />
        </mxCell>
        <mxCell id="nvmey5WYhwGQmrVhtM5V-34" value="&lt;div&gt;Vehicle is available&lt;br&gt;&lt;/div&gt;&lt;div&gt;&lt;br&gt;&lt;/div&gt;&lt;div&gt;Vehicle is not available&lt;br&gt;&lt;/div&gt;" style="ellipse;whiteSpace=wrap;html=1;" vertex="1" parent="nvmey5WYhwGQmrVhtM5V-1">
          <mxGeometry x="50" y="170" width="136" height="90" as="geometry" />
        </mxCell>
        <mxCell id="nvmey5WYhwGQmrVhtM5V-35" value="" style="endArrow=none;html=1;rounded=0;exitX=0;exitY=0.5;exitDx=0;exitDy=0;entryX=1;entryY=0.5;entryDx=0;entryDy=0;" edge="1" parent="nvmey5WYhwGQmrVhtM5V-1" source="nvmey5WYhwGQmrVhtM5V-34" target="nvmey5WYhwGQmrVhtM5V-34">
          <mxGeometry width="50" height="50" relative="1" as="geometry">
            <mxPoint x="100" y="320" as="sourcePoint" />
            <mxPoint x="150" y="270" as="targetPoint" />
          </mxGeometry>
        </mxCell>
        <mxCell id="nvmey5WYhwGQmrVhtM5V-36" value="Save vehicle data" style="ellipse;whiteSpace=wrap;html=1;" vertex="1" parent="nvmey5WYhwGQmrVhtM5V-1">
          <mxGeometry x="270" y="160" width="100" height="65" as="geometry" />
        </mxCell>
        <mxCell id="nvmey5WYhwGQmrVhtM5V-38" value="" style="ellipse;whiteSpace=wrap;html=1;" vertex="1" parent="nvmey5WYhwGQmrVhtM5V-1">
          <mxGeometry x="270" y="270" width="100" height="65" as="geometry" />
        </mxCell>
        <mxCell id="nvmey5WYhwGQmrVhtM5V-5" style="rounded=0;orthogonalLoop=1;jettySize=auto;html=1;entryX=0;entryY=0.5;entryDx=0;entryDy=0;" edge="1" parent="1" source="nvmey5WYhwGQmrVhtM5V-3" target="nvmey5WYhwGQmrVhtM5V-4">
          <mxGeometry relative="1" as="geometry">
            <mxPoint x="340" y="200" as="targetPoint" />
          </mxGeometry>
        </mxCell>
        <mxCell id="nvmey5WYhwGQmrVhtM5V-23" style="rounded=0;orthogonalLoop=1;jettySize=auto;html=1;entryX=0;entryY=0.5;entryDx=0;entryDy=0;" edge="1" parent="1" source="nvmey5WYhwGQmrVhtM5V-3" target="nvmey5WYhwGQmrVhtM5V-34">
          <mxGeometry relative="1" as="geometry">
            <mxPoint x="254.0057995591361" y="289.5050079164271" as="targetPoint" />
          </mxGeometry>
        </mxCell>
        <mxCell id="nvmey5WYhwGQmrVhtM5V-3" value="Employee" style="shape=umlActor;verticalLabelPosition=bottom;verticalAlign=top;html=1;outlineConnect=0;" vertex="1" parent="1">
          <mxGeometry x="80" y="257.5" width="30" height="60" as="geometry" />
        </mxCell>
        <mxCell id="nvmey5WYhwGQmrVhtM5V-59" value="" style="shape=stencil(fZbdcgIhDIWfZm8zQAg/17Z9j85U606tdqz9e/tmZ0c0uJ47xP0I5JwEBl59bp8/1kNwn6fj4W39M76ctgM/DCGM++36OJ50NPDjwKvN4bh+PR6+9i/z74/n6ctp9H74nlb4nbmSKZeJCu5vngmZ6jzzNAO7cX8FVKEsBuBKrgKg9oAE8gkCbLeUhEoEQKSUDZDLeWYRKIl8MEDRmHwfyBrBG6Amyu4+kDxxMoB3jhwgYu7TVAsVkFcWCs4CTBEoF4RctKeOxHIf8IXYpikHikAIf+MNUW94AGSSaoAoFIE3AlOyeWU+p2E5S9yfQZcQILVuQOwZdJNoS9Ls3wA5u2XZTIHECqeJ9kDpSaauRiNVcAY1QhdBzeLBli5WazpkSsBLV25uRaqWRyFawTQzRRIQYirJzq5atkBqLfouwqUxLBepthWb10vrWZY6UOAeyKCCtDV625mm9gmUC4Wc3VLJMMIE1BsA2FW9JraVlQB7n3c9oMKhCLEvIM1zBPZ25/umNQ1tVEC2G+fFCC8g398O2hNQuQlVu752DBfA+q0ptnqO5JFmeuIuo9DY7KjY71UxdJV4EntifPWorW++R/dC4t7V3DlIB5cHx2bc7eb3yvX//QNFp+bHDT/+Aw==);lineShape=1;strokeColor=default;" vertex="1" parent="1">
          <mxGeometry x="343.96527870203636" y="367.60274677736084" width="3.4611405719373645" height="3.4557305306353316" as="geometry" />
        </mxCell>
      </root>
    </mxGraphModel>
  </diagram>
</mxfile>
